# Blender 4.0.2
# www.blender.org
mtllib House.mtl
o Cube
v 1.000000 -0.400998 -1.000000
v 1.000000 -0.400998 1.000000
v -1.000000 -0.400998 -1.000000
v -1.000000 -0.400998 1.000000
v 0.952953 0.027074 0.952953
v -0.942775 0.021687 0.942775
v 0.947092 0.044455 -0.947092
v -0.951754 0.062073 -0.951754
v 0.000000 -0.400998 -1.000000
v 0.000000 -0.000998 1.000000
v 0.000000 -0.400998 1.000000
v 0.000000 -0.000998 -1.000000
v -1.000000 -0.400998 0.000000
v 1.000000 -0.000998 0.000000
v -1.000000 -0.000998 0.000000
v 1.000000 -0.400998 0.000000
v 0.000000 -0.400998 0.000000
v 0.000000 -0.400998 0.470672
v 0.000000 -0.400998 -0.470672
v -1.000000 -0.400998 0.470672
v -1.000000 -0.400998 -0.470672
v -0.951754 0.062073 -0.501287
v -0.942775 0.021687 0.506984
v 0.952953 0.027074 0.500525
v 0.947092 0.044455 -0.504245
v 1.000000 -0.400998 -0.470672
v 1.000000 -0.400998 0.470672
v 0.434019 0.017468 -0.947092
v -0.430857 0.030796 -0.951754
v -0.436947 0.021687 0.904718
v 0.430044 0.027074 0.952953
v -0.398136 -0.400998 -1.000000
v 0.398136 -0.400998 -1.000000
v -0.398136 -0.400998 0.000000
v 0.398136 -0.400998 0.000000
v -0.398136 -0.400998 0.470672
v 0.398136 -0.400998 0.470672
v 0.398136 -0.400998 1.000000
v -0.398136 -0.400998 1.000000
v 0.398136 -0.400998 -0.470672
v -0.398136 -0.400998 -0.470672
v -1.000000 -0.000998 1.000000
v -1.000000 -0.000998 0.470672
v -0.398136 -0.000998 1.000000
v 1.000000 -0.000998 1.000000
v 1.000000 -0.000998 0.470672
v 0.398136 -0.000998 1.000000
v -1.000000 -0.000998 -1.000000
v -1.000000 -0.000998 -0.470672
v -0.398136 -0.000998 -1.000000
v 1.000000 -0.000998 -1.000000
v 1.000000 -0.000998 -0.470672
v 0.398136 -0.000998 -1.000000
v 0.794121 0.008482 0.764173
v -0.758256 0.050100 0.743627
v 0.762911 0.030206 -0.784543
v -0.787226 0.085546 -0.764414
v 0.001248 0.099005 -0.706286
v 0.001248 0.042517 0.787697
v -0.786869 -0.005204 0.031044
v 0.789365 -0.005204 -0.000420
v 0.789365 -0.005204 0.361757
v -0.822733 -0.005204 -0.339900
v -0.786869 -0.005204 0.370524
v 0.789365 -0.005204 -0.393824
v 0.329334 0.099005 -0.706286
v -0.363947 0.099005 -0.706286
v -0.210510 0.042517 0.787697
v 0.328919 0.042517 0.787697
v -0.748713 0.023060 0.431368
v -0.374623 0.023060 0.731870
v 0.757995 0.029773 0.411779
v 0.379968 0.029773 0.757444
v -0.790564 0.073380 -0.391198
v -0.416298 0.101216 -0.675262
v 0.754087 0.051428 -0.450078
v 0.386743 0.072268 -0.683587
v 0.469578 1.991861 -0.518386
v 0.479378 1.814308 0.519733
v -0.601176 1.852319 -0.549271
v -0.590219 1.850814 0.488819
v -0.052396 1.878352 0.539217
v -0.058103 1.909813 -0.498740
v 0.543151 1.810328 -0.060939
v -0.656388 1.822842 -0.000289
v -0.054210 2.592792 -0.056501
v -0.054210 2.157244 0.214716
v -0.054210 2.257356 -0.327718
v 0.530936 1.935943 0.191150
v 0.529415 1.909877 -0.368446
v -0.660443 1.897255 -0.290029
v -0.604276 1.849606 0.231944
v 0.195753 2.000501 -0.533372
v -0.370050 1.929401 -0.470357
v -0.328091 1.867334 0.467829
v 0.207540 1.944125 0.528531
v 0.175210 2.234062 -0.056501
v -0.283629 2.234062 -0.056501
v 0.370879 1.895919 0.400121
v -0.504251 1.871654 0.378476
v -0.420590 1.923383 -0.396149
v 0.359588 2.084213 -0.415970
v -0.682049 1.822842 0.164427
v -0.316078 2.077333 0.214716
v -0.184672 1.878352 0.500102
v 0.543151 1.903344 0.136517
v 0.202997 2.085950 0.235410
v 0.075514 1.893022 0.539217
v -0.713112 1.822842 -0.214770
v -0.283629 2.066127 -0.327718
v -0.308405 1.926538 -0.498740
v 0.543151 1.928238 -0.307007
v 0.129061 2.166006 -0.299488
v 0.136287 2.017440 -0.498740
v 0.663515 1.307468 0.609659
v -0.693874 1.394360 0.664389
v 0.654093 1.353151 -0.734465
v -0.765704 1.442281 -0.687226
v -0.059043 1.328157 -0.691229
v -0.053387 1.585299 0.707775
v -0.824934 1.429862 -0.024839
v 0.707100 1.327305 -0.060612
v 0.707100 1.327305 0.221291
v -0.853296 1.429862 -0.318185
v -0.824934 1.429862 0.243625
v 0.707100 1.327305 -0.366821
v 0.188119 1.328157 -0.691229
v -0.334161 1.328157 -0.691229
v -0.221512 1.585299 0.707775
v 0.206767 1.585299 0.707775
v -0.794760 1.708695 0.291741
v -0.351809 1.725864 0.663451
v 0.682683 1.703204 0.260226
v 0.247298 1.731193 0.683756
v -0.827856 1.748489 -0.358752
v -0.373599 1.650651 -0.667857
v 0.679642 1.720059 -0.410607
v 0.231368 1.628843 -0.674128
vn -0.0000 -0.0000 1.0000
vn -1.0000 -0.0000 -0.0000
vn -0.0000 -1.0000 -0.0000
vn 1.0000 -0.0000 -0.0000
vn -0.0000 -0.0000 -1.0000
vn -0.0000 0.9796 0.2008
vn -0.0200 0.9998 -0.0000
vn 0.0219 0.9998 -0.0009
vn -0.0000 0.9466 -0.3223
vn 0.0197 0.9998 -0.0000
vn -0.0679 0.9973 0.0294
vn -0.1190 0.9928 0.0142
vn -0.1052 0.9937 -0.0373
vn -0.0352 0.9990 -0.0277
vn 0.0065 0.9958 -0.0912
vn 0.0383 0.9764 -0.2125
vn 0.0360 0.9940 0.1035
vn 0.0231 0.9983 -0.0538
vn -0.3685 0.9296 -0.0000
vn 0.0098 0.9581 0.2862
vn -0.0476 0.9952 0.0851
vn 0.5124 0.8587 -0.0000
vn 0.2214 0.8594 -0.4609
vn -0.0000 0.8587 0.5124
vn -0.7943 0.6076 -0.0000
vn -0.4610 0.6256 0.6293
vn 0.0198 0.7114 -0.7025
vn -0.9957 -0.0018 -0.0922
vn 0.6516 0.7585 -0.0000
vn -0.9951 -0.0226 0.0962
vn -0.0207 0.8543 -0.5194
vn -0.3052 0.0446 0.9512
vn 0.2535 0.9444 -0.2095
vn -0.9902 0.0160 0.1388
vn -0.0000 0.0122 -0.9999
vn 0.2115 0.7422 0.6359
vn 0.1067 0.9501 -0.2931
vn 0.9637 0.0754 0.2561
vn -0.0616 0.9896 0.1302
vn 0.9961 0.0629 -0.0624
vn -0.1429 0.9273 -0.3460
vn 0.4242 0.0760 0.9024
vn -0.1971 0.0022 -0.9804
vn -0.0000 0.0517 0.9987
vn -0.8304 -0.0084 -0.5571
vn 0.1333 0.0259 -0.9907
vn -0.9996 -0.0265 -0.0000
vn -0.4587 0.0191 -0.8884
vn -0.0029 0.0485 0.9988
vn 0.9981 0.0616 -0.0000
vn 0.9403 0.0565 -0.3357
vn 0.1264 0.0863 0.9882
vn 0.9973 0.0709 0.0181
vn 0.2765 0.0379 -0.9603
vn -0.8699 0.0187 0.4929
vn -0.5265 0.5897 0.6124
vn 0.5122 0.6088 0.6057
vn 0.6524 0.5667 -0.5032
vn -0.6600 0.5507 -0.5110
vn 0.0833 0.7888 0.6090
vn -0.2075 0.5703 -0.7948
vn 0.0341 0.5979 -0.8008
vn -0.2138 0.7457 0.6310
vn -0.2205 0.9578 -0.1844
vn 0.3376 0.8915 0.3020
vn -0.6583 0.7320 0.1754
vn 0.6459 0.7633 0.0169
vn -0.1337 0.9876 0.0823
vn 0.6537 0.7552 0.0479
vn 0.3991 0.8518 -0.3394
vn -0.6443 0.7429 -0.1816
vn -0.8321 0.4276 -0.3533
vn -0.5784 0.7553 0.3082
vn -0.2485 0.7512 0.6115
vn 0.4299 0.8498 0.3049
vn 0.1915 0.8847 0.4251
vn -0.3142 0.4248 0.8490
vn -0.4172 0.8910 -0.1790
vn -0.4457 0.7656 -0.4638
vn 0.6081 0.3055 -0.7328
vn 0.7943 0.2438 0.5565
vn 0.5523 0.8040 0.2204
vn -0.0270 0.8124 -0.5825
vn -0.6348 0.1834 -0.7506
vn -0.8152 0.3068 0.4912
vn 0.7959 0.2021 -0.5707
vn 0.1101 0.6679 0.7361
vn 0.4252 0.4075 0.8082
vn -0.2875 0.5486 0.7851
vn -0.0655 0.4498 -0.8907
vn 0.0811 0.3476 -0.9341
vn 0.7926 0.4489 -0.4128
vn -0.7505 0.5268 0.3991
vn -0.6652 0.5724 -0.4794
vn 0.7867 0.4485 0.4243
vn 0.9563 0.2859 0.0610
vn -0.9296 0.3645 -0.0551
vn -0.0184 0.4862 0.8736
vn 0.0099 0.3099 -0.9507
vn -0.0699 0.2866 -0.9555
vn -0.9278 0.3391 0.1555
vn 0.9550 0.2911 -0.0565
vn -0.1085 0.5420 0.8334
vt 0.375000 0.875000
vt 0.625000 0.875000
vt 0.625000 0.924767
vt 0.375000 0.924767
vt 0.375000 0.125000
vt 0.625000 0.125000
vt 0.625000 0.183834
vt 0.375000 0.183834
vt 0.250000 0.625000
vt 0.299767 0.625000
vt 0.299767 0.683834
vt 0.250000 0.683834
vt 0.375000 0.625000
vt 0.625000 0.625000
vt 0.625000 0.683834
vt 0.375000 0.683834
vt 0.375000 0.375000
vt 0.625000 0.375000
vt 0.625000 0.424767
vt 0.375000 0.424767
vt 0.750000 0.734199
vt 0.793476 0.734199
vt 0.799767 0.750000
vt 0.750000 0.750000
vt 0.640801 0.625000
vt 0.640801 0.676397
vt 0.859199 0.625000
vt 0.859199 0.573603
vt 0.875000 0.566166
vt 0.875000 0.625000
vt 0.750000 0.515801
vt 0.706524 0.515801
vt 0.700233 0.500000
vt 0.750000 0.500000
vt 0.793476 0.515801
vt 0.799767 0.500000
vt 0.706524 0.734199
vt 0.700233 0.750000
vt 0.375000 0.325233
vt 0.625000 0.325233
vt 0.200233 0.625000
vt 0.200233 0.683834
vt 0.375000 0.825233
vt 0.625000 0.825233
vt 0.200233 0.566166
vt 0.250000 0.566166
vt 0.859199 0.676397
vt 0.875000 0.683834
vt 0.640801 0.573603
vt 0.625000 0.566166
vt 0.375000 0.566166
vt 0.299767 0.566166
vt 0.375000 0.066166
vt 0.625000 0.066166
vt 0.643284 0.685205
vt 0.642012 0.732988
vt 0.627422 0.747578
vt 0.627422 0.690073
vt 0.250000 0.750000
vt 0.200233 0.750000
vt 0.250000 0.500000
vt 0.299767 0.500000
vt 0.375000 0.000000
vt 0.625000 0.000000
vt 0.200233 0.500000
vt 0.856653 0.564569
vt 0.857957 0.517043
vt 0.872516 0.502484
vt 0.872516 0.559765
vt 0.625000 0.250000
vt 0.375000 0.250000
vt 0.857726 0.732726
vt 0.856179 0.687126
vt 0.872054 0.691455
vt 0.872054 0.747054
vt 0.625000 0.750000
vt 0.375000 0.750000
vt 0.642163 0.517163
vt 0.643593 0.563690
vt 0.627724 0.559133
vt 0.627724 0.502724
vt 0.375000 0.500000
vt 0.625000 0.500000
vt 0.299767 0.750000
vt 0.696585 0.518390
vt 0.693149 0.502724
vt 0.803000 0.517281
vt 0.806214 0.502484
vt 0.804233 0.731399
vt 0.807443 0.747054
vt 0.625000 1.000000
vt 0.375000 1.000000
vt 0.697239 0.732756
vt 0.693950 0.747578
vt 0.125000 0.566166
vt 0.125000 0.625000
vt 0.125000 0.683834
vt 0.125000 0.750000
vt 0.125000 0.500000
vt 0.875000 0.750000
vt 0.875000 0.500000
vt 0.750000 0.625000
vt 0.787185 0.625000
vt 0.787185 0.668960
vt 0.750000 0.668960
vt 0.712815 0.625000
vt 0.712815 0.668960
vt 0.712815 0.581040
vt 0.750000 0.581040
vt 0.787185 0.581040
vt 0.750000 0.718398
vt 0.712815 0.718398
vt 0.750000 0.531602
vt 0.787185 0.531602
vt 0.712815 0.531602
vt 0.787185 0.718398
vt 0.799786 0.532079
vt 0.843398 0.531602
vt 0.840789 0.569373
vt 0.798852 0.569373
vt 0.659146 0.680336
vt 0.701438 0.680336
vt 0.700528 0.717933
vt 0.656602 0.718398
vt 0.843398 0.625000
vt 0.843398 0.668960
vt 0.656602 0.581040
vt 0.656602 0.625000
vt 0.801023 0.682798
vt 0.840304 0.682798
vt 0.843398 0.718398
vt 0.801023 0.715744
vt 0.656602 0.668960
vt 0.656602 0.531602
vt 0.700021 0.534055
vt 0.700021 0.568246
vt 0.659463 0.568246
vt 0.843398 0.581040
s 0
usemtl Material
f 11/1/1 10/2/1 44/3/1 39/4/1
f 13/5/2 15/6/2 49/7/2 21/8/2
f 17/9/3 35/10/3 37/11/3 18/12/3
f 16/13/4 14/14/4 46/15/4 27/16/4
f 9/17/5 12/18/5 53/19/5 33/20/5
f 59/21/6 68/22/6 44/23/6 10/24/6
f 61/25/7 62/26/7 46/15/7 14/14/7
f 60/27/8 63/28/8 49/29/8 15/30/8
f 58/31/9 66/32/9 53/33/9 12/34/9
f 67/35/9 58/31/9 12/34/9 50/36/9
f 69/37/6 59/21/6 10/24/6 47/38/6
f 32/39/5 50/40/5 12/18/5 9/17/5
f 34/41/3 17/9/3 18/12/3 36/42/3
f 38/43/1 47/44/1 10/2/1 11/1/1
f 41/45/3 19/46/3 17/9/3 34/41/3
f 64/47/10 60/27/10 15/30/10 43/48/10
f 65/49/7 61/25/7 14/14/7 52/50/7
f 26/51/4 52/50/4 14/14/4 16/13/4
f 19/46/3 40/52/3 35/10/3 17/9/3
f 20/53/2 43/54/2 15/6/2 13/5/2
f 72/55/11 54/56/11 5/57/11 24/58/11
f 36/42/3 18/12/3 11/59/3 39/60/3
f 9/61/3 33/62/3 40/52/3 19/46/3
f 4/63/2 42/64/2 43/54/2 20/53/2
f 32/65/3 9/61/3 19/46/3 41/45/3
f 74/66/12 57/67/12 8/68/12 22/69/12
f 21/8/2 49/7/2 48/70/2 3/71/2
f 55/72/13 70/73/13 23/74/13 6/75/13
f 27/16/4 46/15/4 45/76/4 2/77/4
f 56/78/14 76/79/14 25/80/14 7/81/14
f 1/82/4 51/83/4 52/50/4 26/51/4
f 18/12/3 37/11/3 38/84/3 11/59/3
f 77/85/15 56/78/15 7/81/15 28/86/15
f 33/20/5 53/19/5 51/83/5 1/82/5
f 57/67/16 75/87/16 29/88/16 8/68/16
f 71/89/17 55/72/17 6/75/17 30/90/17
f 39/4/1 44/3/1 42/91/1 4/92/1
f 54/56/18 73/93/18 31/94/18 5/57/18
f 3/71/5 48/70/5 50/40/5 32/39/5
f 33/62/3 1/82/3 26/51/3 40/52/3
f 35/10/3 16/13/3 27/16/3 37/11/3
f 21/95/3 41/45/3 34/41/3 13/96/3
f 37/11/3 27/16/3 2/77/3 38/84/3
f 13/96/3 34/41/3 36/42/3 20/97/3
f 2/77/1 45/76/1 47/44/1 38/43/1
f 20/97/3 36/42/3 39/60/3 4/98/3
f 3/99/3 32/65/3 41/45/3 21/95/3
f 40/52/3 26/51/3 16/13/3 35/10/3
f 6/75/19 23/74/19 43/48/19 42/100/19
f 30/90/20 6/75/20 42/100/20 44/23/20
f 71/89/21 30/90/21 44/23/21 68/22/21
f 24/58/22 5/57/22 45/76/22 46/15/22
f 72/55/23 24/58/23 46/15/23 62/26/23
f 5/57/24 31/94/24 47/38/24 45/76/24
f 22/69/25 8/68/25 48/101/25 49/29/25
f 74/66/26 22/69/26 49/29/26 63/28/26
f 8/68/27 29/88/27 50/36/27 48/101/27
f 57/67/28 74/66/28 135/66/28 118/67/28
f 7/81/29 25/80/29 52/50/29 51/83/29
f 63/28/30 60/27/30 121/27/30 124/28/30
f 28/86/31 7/81/31 51/83/31 53/33/31
f 71/89/32 68/22/32 129/22/32 132/89/32
f 77/85/33 28/86/33 53/33/33 66/32/33
f 70/73/34 55/72/34 116/72/34 131/73/34
f 66/32/35 58/31/35 119/31/35 127/32/35
f 25/80/36 76/79/36 65/49/36 52/50/36
f 29/88/37 75/87/37 67/35/37 50/36/37
f 72/55/38 62/26/38 123/26/38 133/55/38
f 31/94/39 73/93/39 69/37/39 47/38/39
f 76/79/40 56/78/40 117/78/40 137/79/40
f 58/31/35 67/35/35 128/35/35 119/31/35
f 23/74/41 70/73/41 64/47/41 43/48/41
f 69/37/42 73/93/42 134/93/42 130/37/42
f 56/78/43 77/85/43 138/85/43 117/78/43
f 59/21/44 69/37/44 130/37/44 120/21/44
f 74/66/45 63/28/45 124/28/45 135/66/45
f 75/87/46 57/67/46 118/67/46 136/87/46
f 60/27/47 64/47/47 125/47/47 121/27/47
f 67/35/48 75/87/48 136/87/48 128/35/48
f 55/72/49 71/89/49 132/89/49 116/72/49
f 61/25/50 65/49/50 126/49/50 122/25/50
f 65/49/51 76/79/51 137/79/51 126/49/51
f 68/22/44 59/21/44 120/21/44 129/22/44
f 73/93/52 54/56/52 115/56/52 134/93/52
f 54/56/53 72/55/53 133/55/53 115/56/53
f 77/85/54 66/32/54 127/32/54 138/85/54
f 62/26/50 61/25/50 122/25/50 123/26/50
f 64/47/55 70/73/55 131/73/55 125/47/55
f 86/102/56 98/103/56 104/104/56 87/105/56
f 97/106/57 86/102/57 87/105/57 107/107/57
f 113/108/58 88/109/58 86/102/58 97/106/58
f 88/109/59 110/110/59 98/103/59 86/102/59
f 107/107/60 87/105/60 82/111/60 108/112/60
f 83/113/61 111/114/61 110/110/61 88/109/61
f 114/115/62 83/113/62 88/109/62 113/108/62
f 87/105/63 104/104/63 105/116/63 82/111/63
f 94/117/64 80/118/64 91/119/64 101/120/64
f 89/121/65 99/122/65 96/123/65 79/124/65
f 98/103/66 85/125/66 103/126/66 104/104/66
f 112/127/67 113/108/67 97/106/67 84/128/67
f 100/129/68 92/130/68 81/131/68 95/132/68
f 84/128/69 97/106/69 107/107/69 106/133/69
f 78/134/70 93/135/70 102/136/70 90/137/70
f 110/110/71 109/138/71 85/125/71 98/103/71
f 131/73/72 92/130/72 103/126/72 125/47/72
f 92/130/73 100/129/73 104/104/73 103/126/73
f 100/129/74 95/132/74 105/116/74 104/104/74
f 99/122/75 89/121/75 106/133/75 107/107/75
f 96/123/76 99/122/76 107/107/76 108/112/76
f 134/93/77 96/123/77 108/112/77 130/37/77
f 101/120/78 91/119/78 109/138/78 110/110/78
f 94/117/79 101/120/79 110/110/79 111/114/79
f 136/87/80 94/117/80 111/114/80 128/35/80
f 137/79/81 90/137/81 112/127/81 126/49/81
f 90/137/82 102/136/82 113/108/82 112/127/82
f 102/136/83 93/135/83 114/115/83 113/108/83
f 93/135/84 138/85/84 127/32/84 114/115/84
f 91/119/85 135/66/85 124/28/85 109/138/85
f 89/121/86 133/55/86 123/26/86 106/133/86
f 95/132/87 132/89/87 129/22/87 105/116/87
f 79/124/88 96/123/88 134/93/88 115/56/88
f 95/132/89 81/131/89 116/72/89 132/89/89
f 80/118/90 94/117/90 136/87/90 118/67/90
f 93/135/91 78/134/91 117/78/91 138/85/91
f 78/134/92 90/137/92 137/79/92 117/78/92
f 81/131/93 92/130/93 131/73/93 116/72/93
f 91/119/94 80/118/94 118/67/94 135/66/94
f 89/121/95 79/124/95 115/56/95 133/55/95
f 112/127/96 84/128/96 122/25/96 126/49/96
f 103/126/97 85/125/97 121/27/97 125/47/97
f 108/112/98 82/111/98 120/21/98 130/37/98
f 111/114/99 83/113/99 119/31/99 128/35/99
f 83/113/100 114/115/100 127/32/100 119/31/100
f 85/125/101 109/138/101 124/28/101 121/27/101
f 84/128/102 106/133/102 123/26/102 122/25/102
f 82/111/103 105/116/103 129/22/103 120/21/103
