# Blender 4.0.2
# www.blender.org
mtllib Puddle.mtl
o Cube
v 0.128333 -0.017660 -0.474912
v 1.000000 -0.166398 -1.000000
v 0.748533 0.067855 0.471124
v 1.000000 -0.166398 1.000000
v -0.275463 0.025623 -0.478430
v -1.000000 -0.166398 -1.000000
v -0.424622 0.084890 0.606465
v -1.000000 -0.166398 1.000000
v 0.871994 0.067855 0.628831
v -0.611094 0.084890 0.822137
v 0.586390 0.033602 -0.868781
v -0.605881 0.033602 -0.868781
v -0.087101 -0.134474 -0.240565
v 0.178440 -0.118393 0.185668
v -0.188057 -0.135138 -0.281909
v -0.050305 -0.027342 0.393124
v -0.457497 0.067855 -0.757655
v 0.418040 0.022997 -0.750007
v -0.479300 -0.024869 -0.125410
v 0.117471 -0.162881 -0.037535
v -0.844088 0.033602 -0.688450
v 0.871994 0.033602 -0.753033
v -0.755994 0.067855 -0.548669
v 0.764570 0.022997 -0.559184
v 1.000000 0.033602 -1.000000
v 0.634877 0.048234 0.822137
v 0.362250 -0.076698 -0.194784
v 0.534164 0.048234 0.693489
v 1.000000 0.033602 1.000000
v -0.844088 0.033602 0.581290
v 0.444729 0.007187 0.257896
v -0.655496 0.084890 0.363165
v -1.000000 0.033602 1.000000
v -1.000000 0.033602 -1.000000
v -0.193941 0.046882 0.464754
v -0.506022 -0.020351 -0.185704
v 0.522652 0.022997 -0.417583
v 0.241168 0.023912 0.504252
v 0.070849 -0.138781 -0.168065
v 0.044342 -0.050026 0.393122
v 0.545062 0.067855 0.418128
v -0.505106 0.046310 0.270506
v 0.128433 -0.109493 0.256853
v -0.281823 -0.064799 0.168762
v -0.499461 0.084890 0.421078
v -0.600248 0.067855 -0.626818
v -0.135520 -0.067894 0.240151
v -0.297949 -0.136869 -0.168700
v -1.000000 -0.166398 0.000000
v 1.000000 0.033602 0.000000
v -1.000000 0.033602 -0.000000
v 1.000000 -0.166398 -0.000000
v 0.710324 0.067855 -0.047560
v -0.599131 0.049189 -0.102870
v 0.009197 -0.159972 0.070289
v -0.184133 -0.159972 0.019176
v 0.871994 0.033602 -0.062101
v 0.840221 0.067855 -0.044030
v -0.844088 0.033602 -0.053580
v -0.755022 0.067855 -0.092752
v 0.403490 -0.076498 -0.022947
v 0.147956 -0.163066 0.035007
v -0.505564 0.047467 0.042401
v -0.291628 -0.065244 0.021676
v 0.000000 -0.166398 -1.000000
v 0.000000 0.033602 1.000000
v 0.000000 -0.166398 1.000000
v 0.000000 0.033602 -1.000000
v 0.063679 0.067855 0.573376
v -0.021270 0.084300 -0.622621
v -0.001826 -0.109493 0.207051
v -0.173109 -0.136869 -0.117586
v -0.073565 0.025300 -0.476671
v -0.137579 -0.134806 -0.261237
v -0.009746 0.033602 -0.868781
v -0.019728 0.084300 -0.753831
v 0.011892 0.048234 0.822137
v 0.054771 0.048234 0.649977
v 0.023614 0.024007 0.484503
v -0.002981 -0.050074 0.393123
v -0.087468 -0.159972 0.044732
v 0.000000 -0.166398 -0.000000
v 0.500000 -0.166398 1.000000
v 0.500000 0.033602 -1.000000
v 0.218942 0.022997 -0.620523
v -0.051682 -0.136869 -0.128962
v 0.027384 0.008693 -0.475791
v -0.112340 -0.134640 -0.250901
v 0.288322 0.033602 -0.868781
v 0.199156 0.022997 -0.751919
v -0.039135 -0.159972 0.057511
v 0.500000 -0.166398 -1.000000
v 0.500000 0.033602 1.000000
v 0.345248 0.067855 0.598932
v 0.032419 -0.109493 0.207051
v 0.323384 0.048234 0.822137
v 0.294468 0.048234 0.671733
v 0.132391 0.023959 0.494378
v 0.020680 -0.050050 0.393122
v 0.500000 -0.166398 -0.000000
v -0.500000 -0.166398 -1.000000
v -0.500000 0.033602 1.000000
v -0.217891 0.067855 0.547819
v -0.036072 -0.109493 0.207051
v -0.299601 0.048234 0.822137
v -0.184925 0.048234 0.628221
v -0.085164 0.046835 0.474629
v -0.026643 -0.050098 0.393124
v -0.500000 -0.166398 -0.000000
v -0.500000 -0.166398 1.000000
v -0.500000 0.033602 -1.000000
v -0.261482 0.084300 -0.624719
v -0.235529 -0.136869 -0.143143
v -0.174514 0.025462 -0.477550
v -0.162818 -0.134972 -0.271573
v -0.307814 0.033602 -0.868781
v -0.238613 0.084300 -0.755743
v -0.135800 -0.159972 0.031954
vn -0.0561 0.7736 0.6312
vn -0.0000 -0.0000 1.0000
vn -1.0000 -0.0000 -0.0000
vn -0.0000 -1.0000 -0.0000
vn 1.0000 -0.0000 -0.0000
vn -0.0000 -0.0000 -1.0000
vn 0.1276 0.9874 0.0938
vn 0.2245 0.9744 -0.0106
vn -0.3608 0.9326 0.0003
vn -0.0003 0.9960 0.0893
vn 0.1978 0.8964 -0.3967
vn -0.2921 0.9526 0.0857
vn 0.4533 0.8913 -0.0107
vn 0.0460 0.7871 -0.6151
vn -0.0558 0.9701 0.2362
vn -0.0061 0.9999 0.0104
vn 0.0445 0.8833 0.4666
vn -0.1412 0.9296 0.3405
vn -0.0000 1.0000 -0.0000
vn -0.0586 0.9976 -0.0370
vn -0.0086 0.9997 0.0223
vn 0.0001 0.9901 -0.1402
vn 0.1657 0.9860 -0.0200
vn -0.0337 0.9953 -0.0908
vn -0.0598 0.9939 0.0928
vn -0.0149 0.9998 0.0161
vn 0.0437 0.9669 0.2515
vn 0.0432 0.9919 0.1195
vn -0.0006 0.9988 0.0487
vn -0.1094 0.9935 -0.0304
vn 0.0699 0.9952 -0.0678
vn -0.1472 0.9891 -0.0000
vn -0.1391 0.9903 0.0001
vn -0.3984 0.9018 -0.1673
vn 0.1050 0.9914 0.0787
vn -0.1762 0.9453 0.2745
vn -0.3383 0.9189 -0.2027
vn 0.1165 0.9704 -0.2114
vn 0.1285 0.9422 -0.3094
vn -0.1915 0.8977 -0.3968
vn 0.1979 0.8928 -0.4047
vn 0.5656 0.8228 -0.0550
vn 0.4109 0.8666 -0.2831
vn 0.4853 0.8732 0.0444
vn 0.2555 0.9121 -0.3207
vn 0.5185 0.7945 -0.3161
vn 0.4100 0.9070 -0.0962
vn -0.0740 0.9679 -0.2402
vn -0.4179 0.9028 0.1014
vn 0.0651 0.9977 0.0189
vn 0.4572 0.8405 -0.2907
vn -0.3633 0.9078 -0.2096
vn -0.0546 0.9860 0.1576
vn -0.2850 0.9584 0.0110
vn 0.1027 0.9938 -0.0434
vn -0.0011 0.9913 0.1316
vn -0.0004 0.9526 -0.3041
vn 0.0416 0.8883 -0.4574
vn -0.0223 0.9691 0.2456
vn -0.0000 0.9966 0.0820
vn 0.2581 0.9659 -0.0179
vn -0.0010 0.9999 0.0163
vn -0.0028 0.9277 0.3733
vn 0.1737 0.7160 -0.6762
vn 0.0512 0.9423 -0.3309
vn 0.0015 0.9136 -0.4067
vn 0.0537 0.8104 0.5834
vn 0.1207 0.8208 0.5583
vn 0.1584 0.9172 -0.3655
vn 0.0151 0.9997 0.0167
vn -0.1517 0.9497 -0.2741
vn 0.0276 0.9939 0.1068
vn -0.0004 0.9526 -0.3043
vn 0.2013 0.8964 0.3949
vn 0.0471 0.7753 -0.6298
vn 0.1173 0.9858 -0.1203
vn -0.0288 0.9437 -0.3297
vn 0.1778 0.7645 -0.6197
vn -0.0369 0.9287 0.3690
vn 0.0922 0.9951 0.0361
vn 0.3566 0.8644 -0.3544
vn -0.0576 0.9844 0.1665
vn 0.0848 0.9408 -0.3281
vn -0.0068 0.9999 0.0119
vn 0.0480 0.9494 -0.3105
vn -0.0534 0.7980 0.6003
vt 0.764155 0.573889
vt 0.777826 0.573889
vt 0.763872 0.573889
vt 0.756909 0.573889
vt 0.375000 0.937500
vt 0.625000 0.937500
vt 0.625000 1.000000
vt 0.375000 1.000000
vt 0.375000 0.125000
vt 0.625000 0.125000
vt 0.625000 0.250000
vt 0.375000 0.250000
vt 0.312500 0.625000
vt 0.375000 0.625000
vt 0.375000 0.750000
vt 0.312500 0.750000
vt 0.625000 0.625000
vt 0.625000 0.750000
vt 0.375000 0.437500
vt 0.625000 0.437500
vt 0.625000 0.500000
vt 0.375000 0.500000
vt 0.772909 0.700028
vt 0.797928 0.698863
vt 0.823860 0.726959
vt 0.787735 0.725956
vt 0.677298 0.624585
vt 0.673303 0.676354
vt 0.649826 0.699431
vt 0.646362 0.617962
vt 0.824175 0.622181
vt 0.824227 0.573218
vt 0.851890 0.546700
vt 0.851934 0.622228
vt 0.725849 0.548345
vt 0.700931 0.548494
vt 0.678544 0.525439
vt 0.714410 0.525566
vt 0.775555 0.625000
vt 0.801111 0.625000
vt 0.801111 0.676111
vt 0.775555 0.676111
vt 0.698889 0.624759
vt 0.698889 0.593034
vt 0.698889 0.605772
vt 0.698889 0.624142
vt 0.801111 0.632166
vt 0.801111 0.663665
vt 0.801111 0.659128
vt 0.801111 0.632043
vt 0.735559 0.676111
vt 0.719757 0.676111
vt 0.734251 0.676111
vt 0.742850 0.676111
vt 0.736812 0.573889
vt 0.723141 0.573889
vt 0.698889 0.573889
vt 0.724445 0.573889
vt 0.801111 0.573889
vt 0.775555 0.573889
vt 0.736021 0.573889
vt 0.687500 0.500000
vt 0.775685 0.548046
vt 0.800603 0.547897
vt 0.775555 0.573889
vt 0.822007 0.525949
vt 0.875000 0.500000
vt 0.681293 0.572816
vt 0.698889 0.625000
vt 0.698889 0.676111
vt 0.642897 0.536492
vt 0.875000 0.750000
vt 0.812500 0.750000
vt 0.722870 0.702358
vt 0.697851 0.703523
vt 0.724445 0.676111
vt 0.679362 0.722945
vt 0.875000 0.625000
vt 0.824124 0.671144
vt 0.851978 0.697755
vt 0.698889 0.656484
vt 0.698889 0.625000
vt 0.698889 0.642513
vt 0.767162 0.676111
vt 0.782963 0.676111
vt 0.775555 0.676111
vt 0.724445 0.676111
vt 0.768646 0.676111
vt 0.801111 0.600666
vt 0.801111 0.604959
vt 0.312500 0.500000
vt 0.375000 0.000000
vt 0.625000 0.000000
vt 0.187500 0.500000
vt 0.250000 0.500000
vt 0.250000 0.625000
vt 0.187500 0.625000
vt 0.724445 0.573889
vt 0.750000 0.573889
vt 0.750000 0.625000
vt 0.724445 0.625000
vt 0.760047 0.676111
vt 0.751449 0.676111
vt 0.750000 0.676111
vt 0.751360 0.676111
vt 0.747890 0.701193
vt 0.715487 0.723949
vt 0.751611 0.724952
vt 0.750000 0.750000
vt 0.687500 0.750000
vt 0.750767 0.548195
vt 0.750000 0.573889
vt 0.786141 0.525821
vt 0.750275 0.525694
vt 0.750000 0.500000
vt 0.812500 0.500000
vt 0.742983 0.573889
vt 0.749946 0.573889
vt 0.750484 0.573889
vt 0.375000 0.312500
vt 0.625000 0.312500
vt 0.625000 0.375000
vt 0.375000 0.375000
vt 0.250000 0.750000
vt 0.187500 0.750000
vt 0.375000 0.812500
vt 0.625000 0.812500
vt 0.625000 0.875000
vt 0.375000 0.875000
vt 0.125000 0.625000
vt 0.125000 0.750000
vt 0.125000 0.500000
s 0
usemtl Material
f 114/1/1 5/2/1 15/3/1 115/4/1
f 110/5/2 102/6/2 33/7/2 8/8/2
f 49/9/3 51/10/3 34/11/3 6/12/3
f 100/13/4 52/14/4 4/15/4 83/16/4
f 52/14/5 50/17/5 29/18/5 4/15/5
f 92/19/6 84/20/6 25/21/6 2/22/6
f 106/23/7 7/24/7 10/25/7 105/26/7
f 58/27/8 3/28/8 9/29/8 57/30/8
f 60/31/9 23/32/9 21/33/9 59/34/9
f 90/35/10 18/36/10 11/37/10 89/38/10
f 118/39/11 56/40/11 47/41/11 104/42/11
f 61/43/12 27/44/12 20/45/12 62/46/12
f 63/47/13 42/48/13 44/49/13 64/50/13
f 98/51/14 38/52/14 40/53/14 99/54/14
f 87/55/15 1/56/15 37/57/15 85/58/15
f 115/4/16 15/3/16 48/59/16 113/60/16
f 15/3/17 5/2/17 46/59/17 48/59/17
f 1/56/18 13/61/18 39/57/18 37/57/18
f 89/38/19 11/37/19 25/21/19 84/62/19
f 117/63/20 17/64/20 46/59/20 112/65/20
f 11/37/21 18/36/21 37/57/21 25/21/21
f 17/64/22 12/66/22 34/67/22 46/59/22
f 57/30/23 9/29/23 29/18/23 50/17/23
f 58/27/24 24/68/24 37/57/24 53/69/24
f 9/29/25 3/28/25 41/70/25 29/18/25
f 24/68/26 22/71/26 25/21/26 37/57/26
f 105/26/27 10/25/27 33/72/27 102/73/27
f 97/74/28 28/75/28 41/70/28 94/76/28
f 28/75/29 26/77/29 29/18/29 41/70/29
f 10/25/30 7/24/30 45/41/30 33/72/30
f 59/34/19 21/33/19 34/67/19 51/78/19
f 60/31/31 32/79/31 45/41/31 54/40/31
f 32/79/32 30/80/32 33/72/32 45/41/32
f 21/33/33 23/32/33 46/59/33 34/67/33
f 61/43/34 31/81/34 41/70/34 53/69/34
f 62/46/35 20/45/35 39/57/35 55/82/35
f 20/45/36 27/44/36 37/57/36 39/57/36
f 31/81/37 14/83/37 43/70/37 41/70/37
f 107/84/38 35/85/38 45/41/38 103/86/38
f 99/54/39 40/53/39 43/70/39 95/87/39
f 40/53/40 38/52/40 41/70/40 43/70/40
f 35/85/41 16/88/41 47/41/41 45/41/41
f 63/47/42 36/89/42 46/59/42 54/40/42
f 64/50/43 44/49/43 47/41/43 56/40/43
f 36/89/44 19/90/44 48/59/44 46/59/44
f 44/49/45 42/48/45 45/41/45 47/41/45
f 19/90/46 64/50/46 56/40/46 48/59/46
f 42/48/47 63/47/47 54/40/47 45/41/47
f 14/83/48 62/46/48 55/82/48 43/70/48
f 27/44/49 61/43/49 53/69/49 37/57/49
f 23/32/50 60/31/50 54/40/50 46/59/50
f 30/80/19 59/34/19 51/78/19 33/72/19
f 3/28/19 58/27/19 53/69/19 41/70/19
f 22/71/19 57/30/19 50/17/19 25/21/19
f 36/89/51 63/47/51 64/50/51 19/90/51
f 31/81/52 61/43/52 62/46/52 14/83/52
f 113/60/53 48/59/53 56/40/53 118/39/53
f 32/79/54 60/31/54 59/34/54 30/80/54
f 24/68/55 58/27/55 57/30/55 22/71/55
f 2/22/5 25/21/5 50/17/5 52/14/5
f 92/91/4 2/22/4 52/14/4 100/13/4
f 8/92/3 33/93/3 51/10/3 49/9/3
f 101/94/4 65/95/4 82/96/4 109/97/4
f 86/98/56 72/99/56 81/100/56 91/101/56
f 108/102/57 80/103/57 71/104/57 104/42/57
f 98/51/58 79/105/58 69/104/58 94/76/58
f 106/23/59 78/106/59 69/104/59 103/86/59
f 96/107/60 77/108/60 66/109/60 93/110/60
f 90/35/61 76/111/61 70/112/61 85/58/61
f 116/113/19 75/114/19 68/115/19 111/116/19
f 88/117/62 74/118/62 72/99/62 86/98/62
f 114/1/63 73/119/63 70/112/63 112/65/63
f 107/84/64 79/105/64 80/103/64 108/102/64
f 91/101/65 81/100/65 71/104/65 95/87/65
f 117/63/66 76/111/66 75/114/66 116/113/66
f 97/74/19 78/106/19 77/108/19 96/107/19
f 101/120/6 111/121/6 68/122/6 65/123/6
f 109/97/4 82/96/4 67/124/4 110/125/4
f 83/126/2 93/127/2 66/128/2 67/129/2
f 87/55/67 73/119/67 74/118/67 88/117/67
f 1/56/68 87/55/68 88/117/68 13/61/68
f 4/15/2 29/18/2 93/127/2 83/126/2
f 28/75/19 97/74/19 96/107/19 26/77/19
f 55/82/69 91/101/69 95/87/69 43/70/69
f 13/61/70 88/117/70 86/98/70 39/57/70
f 18/36/19 90/35/19 85/58/19 37/57/19
f 26/77/60 96/107/60 93/110/60 29/18/60
f 38/52/71 98/51/71 94/76/71 41/70/71
f 39/57/72 86/98/72 91/101/72 55/82/72
f 65/95/4 92/91/4 100/13/4 82/96/4
f 80/103/73 99/54/73 95/87/73 71/104/73
f 78/106/59 97/74/59 94/76/59 69/104/59
f 75/114/19 89/38/19 84/62/19 68/115/19
f 73/119/74 87/55/74 85/58/74 70/112/74
f 79/105/75 98/51/75 99/54/75 80/103/75
f 76/111/76 90/35/76 89/38/76 75/114/76
f 65/123/6 68/122/6 84/20/6 92/19/6
f 82/96/4 100/13/4 83/16/4 67/124/4
f 49/130/4 109/97/4 110/125/4 8/131/4
f 6/12/6 34/11/6 111/121/6 101/120/6
f 17/64/77 117/63/77 116/113/77 12/66/77
f 35/85/78 107/84/78 108/102/78 16/88/78
f 5/2/79 114/1/79 112/65/79 46/59/79
f 12/66/19 116/113/19 111/116/19 34/67/19
f 7/24/80 106/23/80 103/86/80 45/41/80
f 16/88/81 108/102/81 104/42/81 47/41/81
f 6/132/4 101/94/4 109/97/4 49/130/4
f 72/99/82 113/60/82 118/39/82 81/100/82
f 79/105/83 107/84/83 103/86/83 69/104/83
f 77/108/60 105/26/60 102/73/60 66/109/60
f 76/111/19 117/63/19 112/65/19 70/112/19
f 74/118/84 115/4/84 113/60/84 72/99/84
f 81/100/85 118/39/85 104/42/85 71/104/85
f 78/106/19 106/23/19 105/26/19 77/108/19
f 67/129/2 66/128/2 102/6/2 110/5/2
f 73/119/86 114/1/86 115/4/86 74/118/86
