# Blender 4.0.2
# www.blender.org
mtllib Road.mtl
o Cube
v 0.526284 0.012390 -0.462725
v 1.000000 -0.196088 -1.000000
v 0.536083 -0.000644 0.575393
v 1.000000 -0.196088 1.000000
v -0.622698 0.058921 -0.577074
v -1.000000 -0.196088 -1.000000
v -0.573738 0.043668 0.544480
v -1.000000 -0.196088 1.000000
v 0.952953 0.017948 0.952953
v -0.942775 0.015255 0.942775
v 0.947092 0.026639 -0.947092
v -0.951754 0.035448 -0.951754
v 0.000000 -0.196088 -1.000000
v 0.000000 0.003912 1.000000
v 0.000000 -0.196088 1.000000
v 0.000000 0.003912 -1.000000
v 0.002496 0.023567 0.575393
v 0.002496 0.060610 -0.412572
v -1.000000 -0.196088 0.000000
v 1.000000 0.003912 0.000000
v -1.000000 0.003912 0.000000
v 1.000000 -0.196088 0.000000
v 0.578730 -0.000293 -0.000840
v -0.573738 -0.000293 0.062088
v 0.000000 -0.196088 0.000000
v 0.002496 -0.000293 -0.000840
v 0.002496 -0.038703 0.270376
v 0.002496 0.011353 -0.272057
v 0.563037 0.020647 0.323033
v 0.561082 0.033612 -0.395912
v 0.000000 -0.196088 0.470672
v 0.000000 -0.196088 -0.470672
v -1.000000 -0.196088 0.470672
v -1.000000 -0.196088 -0.470672
v -0.629374 0.046755 -0.281109
v -0.554650 0.016628 0.355752
v -0.951754 0.035448 -0.501287
v -0.942775 0.015255 0.506984
v 0.952953 0.017948 0.500525
v 0.947092 0.026639 -0.504245
v 1.000000 -0.196088 -0.470672
v 1.000000 -0.196088 0.470672
v 0.339467 0.049368 -0.458543
v -0.342713 0.062510 -0.379608
v 0.434019 0.013145 -0.947092
v -0.430857 0.019809 -0.951754
v -0.312300 0.016628 0.559023
v 0.329893 0.020647 0.561934
v -0.436947 0.015255 0.904718
v 0.430044 0.017948 0.952953
v -0.398136 -0.196088 -1.000000
v 0.398136 -0.196088 -1.000000
v -0.398136 -0.196088 0.000000
v 0.398136 -0.196088 0.000000
v -0.398136 -0.196088 0.470672
v 0.398136 -0.196088 0.470672
v 0.398136 -0.196088 1.000000
v -0.398136 -0.196088 1.000000
v 0.231915 -0.000293 -0.000840
v -0.226924 -0.000293 -0.000840
v 0.427584 0.020647 0.361261
v -0.312300 0.016628 0.355752
v 0.398136 -0.196088 -0.470672
v -0.398136 -0.196088 -0.470672
v -0.363885 0.062510 -0.344037
v 0.416293 0.032583 -0.360309
v -1.000000 0.003912 1.000000
v -1.000000 0.003912 0.470672
v -0.573738 -0.000293 0.270376
v -0.398136 0.003912 1.000000
v -0.226924 -0.038703 0.270376
v -0.226924 0.023567 0.575393
v 1.000000 0.003912 1.000000
v 1.000000 0.003912 0.470672
v 0.578730 -0.000293 0.252843
v 0.398136 0.003912 1.000000
v 0.259702 -0.038703 0.291071
v 0.259702 0.023567 0.575393
v -1.000000 0.003912 -1.000000
v -1.000000 0.003912 -0.470672
v -0.645467 -0.000293 -0.209129
v -0.398136 0.003912 -1.000000
v -0.226924 0.011353 -0.272057
v -0.329758 0.060610 -0.412572
v 1.000000 0.003912 -1.000000
v 1.000000 0.003912 -0.470672
v 0.578730 -0.000293 -0.316977
v 0.398136 0.003912 -1.000000
v 0.185766 0.011353 -0.243827
v 0.260532 0.060610 -0.412572
v 0.794121 0.008652 0.764173
v -0.758256 0.029461 0.743627
v 0.762911 0.019514 -0.784543
v -0.787226 0.047184 -0.764414
v 0.001248 0.053914 -0.706286
v 0.001248 0.025670 0.787697
v -0.786869 0.001809 0.031044
v 0.789365 0.001809 -0.000420
v 0.789365 0.001809 0.361757
v -0.822733 0.001809 -0.339900
v -0.786869 0.001809 0.370524
v 0.789365 0.001809 -0.393824
v 0.329334 0.053914 -0.706286
v -0.363947 0.053914 -0.706286
v -0.210510 0.025670 0.787697
v 0.328919 0.025670 0.787697
v -0.748713 0.015941 0.431368
v -0.374623 0.015941 0.731870
v 0.757995 0.019298 0.411779
v 0.379968 0.019298 0.757444
v -0.790564 0.041102 -0.391198
v -0.416298 0.055019 -0.675262
v 0.754087 0.030126 -0.450078
v 0.386743 0.040545 -0.683587
vn -0.0000 0.9901 0.1402
vn -0.0000 -0.0000 1.0000
vn -1.0000 -0.0000 -0.0000
vn -0.0000 -1.0000 -0.0000
vn 1.0000 -0.0000 -0.0000
vn -0.0000 -0.0000 -1.0000
vn -0.0000 0.9948 0.1019
vn -0.0100 1.0000 -0.0000
vn 0.0110 0.9999 -0.0005
vn -0.0000 0.9858 -0.1678
vn -0.0058 0.9908 0.1354
vn -0.0031 0.9990 0.0455
vn 0.0099 1.0000 -0.0000
vn -0.0000 0.9991 0.0429
vn 0.0083 0.9784 -0.2067
vn -0.0000 0.9437 0.3308
vn -0.0340 0.9993 0.0147
vn -0.0191 0.9540 0.2993
vn -0.0598 0.9982 0.0071
vn -0.0000 0.9798 -0.2000
vn -0.0529 0.9984 -0.0187
vn -0.0176 0.9997 -0.0138
vn 0.0033 0.9989 -0.0458
vn -0.0435 0.9985 0.0330
vn 0.0195 0.9939 -0.1081
vn 0.0181 0.9985 0.0520
vn 0.0668 0.9956 0.0652
vn 0.0115 0.9996 -0.0269
vn 0.0623 0.9949 0.0797
vn 0.0177 0.9997 0.0194
vn 0.0554 0.9963 -0.0660
vn -0.0533 0.9959 0.0728
vn 0.0964 0.9911 -0.0919
vn -0.0114 0.9997 0.0230
vn -0.1944 0.9809 -0.0000
vn -0.0740 0.9810 -0.1794
vn 0.0051 0.9890 0.1477
vn 0.0605 0.9275 -0.3690
vn -0.0239 0.9988 0.0427
vn 0.2261 0.9669 -0.1184
vn 0.2859 0.9583 -0.0000
vn 0.1235 0.9585 -0.2570
vn -0.0000 0.9583 0.2859
vn -0.1402 0.9173 -0.3726
vn -0.1907 0.9681 -0.1627
vn 0.0685 0.9974 -0.0219
vn -0.5471 0.8370 -0.0000
vn -0.3126 0.8486 0.4268
vn 0.0125 0.8966 -0.4427
vn 0.0628 0.8482 0.5259
vn 0.3022 0.9451 0.1242
vn 0.0190 0.9994 -0.0275
vn 0.3947 0.9188 -0.0000
vn 0.1246 0.9189 0.3742
vn -0.0116 0.9567 -0.2908
vn 0.0914 0.9279 0.3614
vn 0.1322 0.9852 -0.1093
vn 0.0939 0.9666 0.2384
vn 0.1794 0.9837 0.0107
vn 0.1298 0.9114 0.3904
vn 0.0554 0.9868 -0.1522
vn -0.3300 0.8290 0.4515
vn -0.0310 0.9974 0.0656
vn 0.1239 0.9582 -0.2578
vn -0.0634 0.9979 -0.0112
vn -0.0755 0.9802 -0.1829
vn 0.0534 0.9966 -0.0634
vn 0.0622 0.9948 0.0811
vn -0.0000 0.9992 -0.0398
vn 0.1126 0.9921 0.0554
vn -0.0733 0.9945 -0.0742
vn -0.1014 0.9911 -0.0860
vn -0.0770 0.9967 0.0260
vn -0.0502 0.9973 0.0534
vn -0.0000 1.0000 -0.0099
vn -0.0000 0.9997 -0.0228
vn 0.0116 0.9999 -0.0019
vt 0.750000 0.625000
vt 0.787185 0.625000
vt 0.787185 0.668960
vt 0.750000 0.668960
vt 0.375000 0.875000
vt 0.625000 0.875000
vt 0.625000 0.924767
vt 0.375000 0.924767
vt 0.375000 0.125000
vt 0.625000 0.125000
vt 0.625000 0.183834
vt 0.375000 0.183834
vt 0.250000 0.625000
vt 0.299767 0.625000
vt 0.299767 0.683834
vt 0.250000 0.683834
vt 0.375000 0.625000
vt 0.625000 0.625000
vt 0.625000 0.683834
vt 0.375000 0.683834
vt 0.375000 0.375000
vt 0.625000 0.375000
vt 0.625000 0.424767
vt 0.375000 0.424767
vt 0.750000 0.734199
vt 0.793476 0.734199
vt 0.799767 0.750000
vt 0.750000 0.750000
vt 0.640801 0.625000
vt 0.640801 0.676397
vt 0.859199 0.625000
vt 0.859199 0.573603
vt 0.875000 0.566166
vt 0.875000 0.625000
vt 0.750000 0.515801
vt 0.706524 0.515801
vt 0.700233 0.500000
vt 0.750000 0.500000
vt 0.793476 0.515801
vt 0.799767 0.500000
vt 0.706524 0.734199
vt 0.700233 0.750000
vt 0.375000 0.325233
vt 0.625000 0.325233
vt 0.200233 0.625000
vt 0.200233 0.683834
vt 0.375000 0.825233
vt 0.625000 0.825233
vt 0.712815 0.625000
vt 0.712815 0.668960
vt 0.712815 0.581040
vt 0.750000 0.581040
vt 0.200233 0.566166
vt 0.250000 0.566166
vt 0.859199 0.676397
vt 0.875000 0.683834
vt 0.640801 0.573603
vt 0.625000 0.566166
vt 0.375000 0.566166
vt 0.299767 0.566166
vt 0.375000 0.066166
vt 0.625000 0.066166
vt 0.787185 0.581040
vt 0.750000 0.718398
vt 0.712815 0.718398
vt 0.750000 0.531602
vt 0.787185 0.531602
vt 0.643284 0.685205
vt 0.642012 0.732988
vt 0.627422 0.747578
vt 0.627422 0.690073
vt 0.712815 0.531602
vt 0.250000 0.750000
vt 0.200233 0.750000
vt 0.250000 0.500000
vt 0.299767 0.500000
vt 0.375000 0.000000
vt 0.625000 0.000000
vt 0.200233 0.500000
vt 0.856653 0.564569
vt 0.857957 0.517043
vt 0.872516 0.502484
vt 0.872516 0.559765
vt 0.787185 0.718398
vt 0.625000 0.250000
vt 0.375000 0.250000
vt 0.857726 0.732726
vt 0.856179 0.687126
vt 0.872054 0.691455
vt 0.872054 0.747054
vt 0.625000 0.750000
vt 0.375000 0.750000
vt 0.642163 0.517163
vt 0.643593 0.563690
vt 0.627724 0.559133
vt 0.627724 0.502724
vt 0.375000 0.500000
vt 0.625000 0.500000
vt 0.299767 0.750000
vt 0.696585 0.518390
vt 0.693149 0.502724
vt 0.799786 0.532079
vt 0.843398 0.531602
vt 0.840789 0.569373
vt 0.798852 0.569373
vt 0.803000 0.517281
vt 0.806214 0.502484
vt 0.804233 0.731399
vt 0.807443 0.747054
vt 0.659146 0.680336
vt 0.701438 0.680336
vt 0.700528 0.717933
vt 0.656602 0.718398
vt 0.625000 1.000000
vt 0.375000 1.000000
vt 0.697239 0.732756
vt 0.693950 0.747578
vt 0.125000 0.566166
vt 0.125000 0.625000
vt 0.125000 0.683834
vt 0.125000 0.750000
vt 0.843398 0.625000
vt 0.843398 0.668960
vt 0.656602 0.581040
vt 0.656602 0.625000
vt 0.801023 0.682798
vt 0.840304 0.682798
vt 0.843398 0.718398
vt 0.801023 0.715744
vt 0.656602 0.668960
vt 0.125000 0.500000
vt 0.656602 0.531602
vt 0.700021 0.534055
vt 0.700021 0.568246
vt 0.659463 0.568246
vt 0.843398 0.581040
vt 0.875000 0.750000
vt 0.875000 0.500000
s 0
usemtl Material
f 26/1/1 60/2/1 71/3/1 27/4/1
f 15/5/2 14/6/2 70/7/2 58/8/2
f 19/9/3 21/10/3 80/11/3 34/12/3
f 25/13/4 54/14/4 56/15/4 31/16/4
f 22/17/5 20/18/5 74/19/5 42/20/5
f 13/21/6 16/22/6 88/23/6 52/24/6
f 96/25/7 105/26/7 70/27/7 14/28/7
f 98/29/8 99/30/8 74/19/8 20/18/8
f 97/31/9 100/32/9 80/33/9 21/34/9
f 95/35/10 103/36/10 88/37/10 16/38/10
f 104/39/10 95/35/10 16/38/10 82/40/10
f 106/41/7 96/25/7 14/28/7 76/42/7
f 51/43/6 82/44/6 16/22/6 13/21/6
f 53/45/4 25/13/4 31/16/4 55/46/4
f 57/47/2 76/48/2 14/6/2 15/5/2
f 59/49/11 26/1/11 27/4/11 77/50/11
f 89/51/12 28/52/12 26/1/12 59/49/12
f 64/53/4 32/54/4 25/13/4 53/45/4
f 101/55/13 97/31/13 21/34/13 68/56/13
f 102/57/8 98/29/8 20/18/8 86/58/8
f 41/59/5 86/58/5 20/18/5 22/17/5
f 32/54/4 63/60/4 54/14/4 25/13/4
f 33/61/3 68/62/3 21/10/3 19/9/3
f 28/52/14 83/63/14 60/2/14 26/1/14
f 77/50/15 27/4/15 17/64/15 78/65/15
f 18/66/16 84/67/16 83/63/16 28/52/16
f 109/68/17 91/69/17 9/70/17 39/71/17
f 90/72/18 18/66/18 28/52/18 89/51/18
f 55/46/4 31/16/4 15/73/4 58/74/4
f 13/75/4 52/76/4 63/60/4 32/54/4
f 8/77/3 67/78/3 68/62/3 33/61/3
f 51/79/4 13/75/4 32/54/4 64/53/4
f 111/80/19 94/81/19 12/82/19 37/83/19
f 27/4/20 71/3/20 72/84/20 17/64/20
f 34/12/3 80/11/3 79/85/3 6/86/3
f 92/87/21 107/88/21 38/89/21 10/90/21
f 42/20/5 74/19/5 73/91/5 4/92/5
f 93/93/22 113/94/22 40/95/22 11/96/22
f 2/97/5 85/98/5 86/58/5 41/59/5
f 31/16/4 56/15/4 57/99/4 15/73/4
f 114/100/23 93/93/23 11/96/23 45/101/23
f 44/102/24 5/103/24 35/104/24 65/105/24
f 52/24/6 88/23/6 85/98/6 2/97/6
f 94/81/25 112/106/25 46/107/25 12/82/25
f 108/108/26 92/87/26 10/90/26 49/109/26
f 29/110/27 61/111/27 48/112/27 3/113/27
f 58/8/2 70/7/2 67/114/2 8/115/2
f 91/69/28 110/116/28 50/117/28 9/70/28
f 6/86/6 79/85/6 82/44/6 51/43/6
f 52/76/4 2/97/4 41/59/4 63/60/4
f 54/14/4 22/17/4 42/20/4 56/15/4
f 34/118/4 64/53/4 53/45/4 19/119/4
f 56/15/4 42/20/4 4/92/4 57/99/4
f 19/119/4 53/45/4 55/46/4 33/120/4
f 4/92/2 73/91/2 76/48/2 57/47/2
f 33/120/4 55/46/4 58/74/4 8/121/4
f 60/2/29 24/122/29 69/123/29 71/3/29
f 87/124/30 89/51/30 59/49/30 23/125/30
f 62/126/31 36/127/31 7/128/31 47/129/31
f 23/125/32 59/49/32 77/50/32 75/130/32
f 6/131/4 51/79/4 64/53/4 34/118/4
f 63/60/4 41/59/4 22/17/4 54/14/4
f 1/132/33 43/133/33 66/134/33 30/135/33
f 83/63/34 81/136/34 24/122/34 60/2/34
f 10/90/35 38/89/35 68/56/35 67/137/35
f 107/88/36 36/127/36 69/123/36 101/55/36
f 49/109/37 10/90/37 67/137/37 70/27/37
f 36/127/38 62/126/38 71/3/38 69/123/38
f 108/108/39 49/109/39 70/27/39 105/26/39
f 62/126/40 47/129/40 72/84/40 71/3/40
f 39/71/41 9/70/41 73/91/41 74/19/41
f 109/68/42 39/71/42 74/19/42 99/30/42
f 9/70/43 50/117/43 76/42/43 73/91/43
f 61/111/44 29/110/44 75/130/44 77/50/44
f 48/112/45 61/111/45 77/50/45 78/65/45
f 110/116/46 48/112/46 78/65/46 106/41/46
f 37/83/47 12/82/47 79/138/47 80/33/47
f 111/80/48 37/83/48 80/33/48 100/32/48
f 12/82/49 46/107/49 82/40/49 79/138/49
f 65/105/50 35/104/50 81/136/50 83/63/50
f 44/102/51 65/105/51 83/63/51 84/67/51
f 112/106/52 44/102/52 84/67/52 104/39/52
f 11/96/53 40/95/53 86/58/53 85/98/53
f 113/94/54 30/135/54 87/124/54 102/57/54
f 45/101/55 11/96/55 85/98/55 88/37/55
f 30/135/56 66/134/56 89/51/56 87/124/56
f 114/100/57 45/101/57 88/37/57 103/36/57
f 66/134/58 43/133/58 90/72/58 89/51/58
f 43/133/59 114/100/59 103/36/59 90/72/59
f 40/95/60 113/94/60 102/57/60 86/58/60
f 46/107/61 112/106/61 104/39/61 82/40/61
f 35/104/62 111/80/62 100/32/62 81/136/62
f 50/117/63 110/116/63 106/41/63 76/42/63
f 29/110/64 109/68/64 99/30/64 75/130/64
f 47/129/65 108/108/65 105/26/65 72/84/65
f 38/89/66 107/88/66 101/55/66 68/56/66
f 3/113/67 48/112/67 110/116/67 91/69/67
f 47/129/68 7/128/68 92/87/68 108/108/68
f 5/103/69 44/102/69 112/106/69 94/81/69
f 43/133/70 1/132/70 93/93/70 114/100/70
f 1/132/71 30/135/71 113/94/71 93/93/71
f 7/128/72 36/127/72 107/88/72 92/87/72
f 35/104/73 5/103/73 94/81/73 111/80/73
f 29/110/74 3/113/74 91/69/74 109/68/74
f 87/124/8 23/125/8 98/29/8 102/57/8
f 69/123/13 24/122/13 97/31/13 101/55/13
f 78/65/75 17/64/75 96/25/75 106/41/75
f 84/67/76 18/66/76 95/35/76 104/39/76
f 18/66/76 90/72/76 103/36/76 95/35/76
f 24/122/77 81/136/77 100/32/77 97/31/77
f 23/125/8 75/130/8 99/30/8 98/29/8
f 17/64/75 72/84/75 105/26/75 96/25/75
